# xmcd
# 
# Track frame offsets:
#     150
#     5915
#     34507
#     55635
#     75420
#     90280
#     106980
#     126700
#     148445
#     151162
#     180627
#     199092
#     220077
#     243955
# 
# Disc length: 3352
# 
# Revision: 3
# Processed by: cddbd v1.5.2PL0 Copyright (c) Steve Scherf et al.
# Submitted via: fre:ac v1.0.27
# 
DISCID=b70d160e
DTITLE=中森 明菜 - Utahime3
DYEAR=2003
DGENRE=JPop
TTITLE0=01-回帰 〜歌姫3 Opening (instrumental)
TTITLE1=02-傘がない［井上陽水］
TTITLE2=03-踊り子［村下孝蔵］
TTITLE3=04-愛はかげろう［雅夢］
TTITLE4=05-スローなブギにしてくれ (I want you)
TTITLE5=06-夜霧よ今夜もありがとう［石原裕次郎］
TTITLE6=07-東京砂漠［クール・ファイブ］
TTITLE7=08-窓［松山千春］
TTITLE8=09-Manish 〜歌姫3 Interlude  (instrumental)
TTITLE9=10-ALONE［B'z］
TTITLE10=11-ハリウッド・スキャンダル［郷ひろみ］
TTITLE11=12-恋の予感［安全地帯］
TTITLE12=13-NO MORE ENCORE［内藤やす子］
TTITLE13=14-風の扉 〜歌姫3 Ending (instrumental)
EXTD=YEAR: 2003 歌姫3 〜終幕
EXTT0=
EXTT1=
EXTT2=
EXTT3=
EXTT4=
EXTT5=
EXTT6=
EXTT7=
EXTT8=
EXTT9=
EXTT10=
EXTT11=
EXTT12=
EXTT13=
PLAYORDER=
